<?xml version="1.0" standalone="no"?>
<!DOCTYPE svg PUBLIC "-//W3C//DTD SVG 1.1//EN" "http://www.w3.org/Graphics/SVG/1.1/DTD/svg11.dtd" >
<svg xmlns="http://www.w3.org/2000/svg">
<metadata>Generated by IcoMoon</metadata>
<defs>
<font id="icomoon" horiz-adv-x="1024">
<font-face units-per-em="1024" ascent="960" descent="-64" />
<missing-glyph horiz-adv-x="1024" />
<glyph unicode="&#x20;" horiz-adv-x="512" d="" />
<glyph unicode="&#xe900;" glyph-name="vw-file-view-simple" d="M512 213.333c0 122.197 93.909 222.763 213.333 233.557v278.443c0 5.675-2.261 11.093-6.229 15.061l-213.333 213.333c-4.011 4.011-9.472 6.272-15.104 6.272h-469.333c-11.776 0-21.333-9.557-21.333-21.333v-896c0-11.776 9.557-21.333 21.333-21.333h590.848c-60.459 42.496-100.181 112.64-100.181 192zM469.333 917.333l213.333-213.333h-213.333v213.333zM1017.771-27.563l-121.771 121.728c26.283 32.853 42.667 73.941 42.667 119.168 0 105.856-86.101 192-191.957 192-105.899 0-192.043-86.144-192.043-192 0-105.813 86.144-192 192.043-192 45.184 0 86.272 16.427 119.125 42.667l121.771-121.771c8.32-8.277 21.845-8.277 30.165 0 8.32 8.32 8.32 21.845 0 30.208zM746.709 64c-82.389 0-149.376 66.987-149.376 149.333 0 82.304 66.987 149.333 149.376 149.333 82.304 0 149.291-67.029 149.291-149.333 0-82.347-66.987-149.333-149.291-149.333z" />
<glyph unicode="&#xe901;" glyph-name="vw-double-page" horiz-adv-x="1877" d="M1523.81 667.428h269.715c-5.143 8-10.286 14.857-16 20.571l-233.143 233.143c-5.714 5.714-12.571 10.857-20.571 16v-269.715zM1450.667 649.142v310.858h-457.143c-30.286 0-54.857-24.571-54.857-54.857v-914.287c0-30.286 24.571-54.857 54.857-54.857h768.001c30.286 0 54.857 24.571 54.857 54.857v603.429h-310.858c-30.286 0-54.857 24.571-54.857 54.857v0zM292.572 667.428h-269.715c5.143 8 10.286 14.857 16 20.571l233.143 233.143c5.714 5.714 12.571 10.857 20.571 16v-269.715zM365.715 649.142v310.858h457.143c30.286 0 54.857-24.571 54.857-54.857v-914.287c0-30.286-24.571-54.857-54.857-54.857h-768.001c-30.286 0-54.857 24.571-54.857 54.857v603.429h310.858c30.286 0 54.857 24.571 54.857 54.857v0z" />
<glyph unicode="&#xe902;" glyph-name="vw-vertical-page" horiz-adv-x="939" d="M625.778 49.778h288.444c-5.5 8.556-11 15.889-17.111 22l-249.333 249.333c-6.111 6.111-13.444 11.611-22 17.111v-288.444zM0-368.889v672.889c0 32.389 26.278 58.667 58.667 58.667h488.889v-332.444c0-32.389 26.278-58.667 58.667-58.667h332.444v-35.556h-938.667v-304.889zM0 1244v-693.778c0-32.389 26.278-58.667 58.667-58.667h821.333c32.389 0 58.667 26.278 58.667 58.667v409.778h-938.667v284z" />
<glyph unicode="&#xe903;" glyph-name="vw-align-left" d="M981.333 21.333h-938.667c-23.595 0-42.667-19.115-42.667-42.667 0-23.595 19.072-42.667 42.667-42.667h938.667c23.552 0 42.667 19.072 42.667 42.667 0 23.552-19.115 42.667-42.667 42.667zM42.667 832h810.667c23.552 0 42.667 19.072 42.667 42.667 0 23.552-19.115 42.667-42.667 42.667h-810.667c-23.595 0-42.667-19.115-42.667-42.667 0-23.595 19.072-42.667 42.667-42.667zM42.667 704h640c23.552 0 42.667 19.072 42.667 42.667 0 23.552-19.115 42.667-42.667 42.667h-640c-23.595 0-42.667-19.115-42.667-42.667 0-23.595 19.072-42.667 42.667-42.667zM42.667 576h725.333c23.552 0 42.667 19.072 42.667 42.667 0 23.552-19.115 42.667-42.667 42.667h-725.333c-23.595 0-42.667-19.115-42.667-42.667 0-23.595 19.072-42.667 42.667-42.667zM42.667 448h938.667c23.552 0 42.667 19.072 42.667 42.667 0 23.552-19.115 42.667-42.667 42.667h-938.667c-23.595 0-42.667-19.115-42.667-42.667 0-23.595 19.072-42.667 42.667-42.667zM42.667 320h768c23.552 0 42.667 19.072 42.667 42.667 0 23.552-19.115 42.667-42.667 42.667h-768c-23.595 0-42.667-19.115-42.667-42.667 0-23.595 19.072-42.667 42.667-42.667zM42.667 192h640c23.552 0 42.667 19.072 42.667 42.667 0 23.552-19.115 42.667-42.667 42.667h-640c-23.595 0-42.667-19.115-42.667-42.667 0-23.595 19.072-42.667 42.667-42.667zM42.667 64h768c23.552 0 42.667 19.072 42.667 42.667 0 23.552-19.115 42.667-42.667 42.667h-768c-23.595 0-42.667-19.115-42.667-42.667 0-23.595 19.072-42.667 42.667-42.667z" />
<glyph unicode="&#xe904;" glyph-name="vw-folder" d="M1002.667 704h-106.667v64c0 11.776-9.557 21.333-21.333 21.333h-533.333v64c0 11.776-9.557 21.333-21.333 21.333h-298.667c-11.776 0-21.333-9.557-21.333-21.333v-704c0-70.571 57.429-128 128-128h746.667c82.347 0 149.333 66.987 149.333 149.333v512c0 11.776-9.557 21.333-21.333 21.333zM853.333 704h-618.667c-11.776 0-21.333-9.557-21.333-21.333v-533.333c0-47.061-38.272-85.333-85.333-85.333-47.019 0-85.333 38.272-85.333 85.333v682.667h256v-64c0-11.776 9.557-21.333 21.333-21.333h533.333v-42.667z" />
<glyph unicode="&#xe905;" glyph-name="vw-arrow-down" horiz-adv-x="1076" d="M1075.787 473.893c0-24.397-8.516-45.112-25.548-62.144l-449.51-450.201c-17.953-17.032-38.898-25.548-62.835-25.548-24.397 0-45.112 8.516-62.144 25.548l-449.51 450.201c-17.492 16.572-26.239 37.287-26.239 62.144 0 24.397 8.746 45.342 26.239 62.835l51.096 51.787c17.953 17.032 38.898 25.548 62.835 25.548 24.397 0 45.112-8.516 62.144-25.548l203.005-203.005v486.107c0 23.937 8.746 44.652 26.239 62.144s38.207 26.239 62.144 26.239h88.383c23.937 0 44.652-8.746 62.144-26.239s26.239-38.207 26.239-62.144v-486.107l203.005 203.005c17.032 17.032 37.747 25.548 62.144 25.548 23.937 0 44.882-8.516 62.835-25.548l51.787-51.787c17.032-17.953 25.548-38.898 25.548-62.835z" />
<glyph unicode="&#xe906;" glyph-name="vw-arrow-up" horiz-adv-x="1084" d="M1083.826 418.087c0-23.652-8.58-44.522-25.739-62.609l-52.174-52.174c-17.623-17.623-38.725-26.435-63.304-26.435-25.043 0-45.913 8.812-62.609 26.435l-204.522 203.826v-489.739c0-24.116-8.696-43.71-26.087-58.783s-38.377-22.609-62.957-22.609h-89.043c-24.58 0-45.565 7.536-62.957 22.609s-26.087 34.667-26.087 58.783v489.739l-204.522-203.826c-16.696-17.623-37.565-26.435-62.609-26.435s-45.913 8.812-62.609 26.435l-52.174 52.174c-17.623 17.623-26.435 38.493-26.435 62.609 0 24.58 8.812 45.681 26.435 63.304l452.87 452.87c16.232 17.159 37.101 25.739 62.609 25.739 25.043 0 46.145-8.58 63.304-25.739l452.87-452.87c17.159-18.087 25.739-39.188 25.739-63.304z" />
<glyph unicode="&#xe907;" glyph-name="vw-rotate-right" d="M1024 874.667v-298.667c0-11.556-4.222-21.556-12.667-30s-18.444-12.667-30-12.667h-298.667c-18.667 0-31.778 8.889-39.333 26.667-7.556 17.333-4.444 32.667 9.333 46l92 92c-65.778 60.889-143.333 91.333-232.667 91.333-46.222 0-90.333-9-132.333-27s-78.333-42.333-109-73c-30.667-30.667-55-67-73-109s-27-86.111-27-132.333c0-46.222 9-90.333 27-132.333s42.333-78.333 73-109c30.667-30.667 67-55 109-73s86.111-27 132.333-27c52.889 0 102.889 11.556 150 34.667s86.889 55.778 119.333 98c3.111 4.444 8.222 7.111 15.333 8 6.222 0 11.778-2 16.667-6l91.333-92c4-3.556 6.111-8.111 6.333-13.667s-1.444-10.556-5-15c-48.444-58.667-107.111-104.111-176-136.333s-141.556-48.333-218-48.333c-69.333 0-135.556 13.556-198.667 40.667s-117.556 63.556-163.333 109.333c-45.778 45.778-82.222 100.222-109.333 163.333s-40.667 129.333-40.667 198.667c0 69.333 13.556 135.556 40.667 198.667s63.556 117.556 109.333 163.333c45.778 45.778 100.222 82.222 163.333 109.333s129.333 40.667 198.667 40.667c65.333 0 128.556-12.333 189.667-37s115.444-59.444 163-104.333l86.667 86c12.889 13.778 28.444 16.889 46.667 9.333 17.333-7.556 26-20.667 26-39.333z" />
<glyph unicode="&#xe908;" glyph-name="vw-undo" d="M1024 448c0-69.333-13.556-135.556-40.667-198.667s-63.556-117.556-109.333-163.333c-45.778-45.778-100.222-82.222-163.333-109.333s-129.333-40.667-198.667-40.667c-76.444 0-149.111 16.111-218 48.333s-127.556 77.667-176 136.333c-3.111 4.444-4.556 9.444-4.333 15s2.111 10.111 5.667 13.667l91.333 92c4.444 4 10 6 16.667 6 7.111-0.889 12.222-3.556 15.333-8 32.444-42.222 72.222-74.889 119.333-98s97.111-34.667 150-34.667c46.222 0 90.333 9 132.333 27s78.333 42.333 109 73c30.667 30.667 55 67 73 109s27 86.111 27 132.333c0 46.222-9 90.333-27 132.333s-42.333 78.333-73 109c-30.667 30.667-67 55-109 73s-86.111 27-132.333 27c-43.556 0-85.333-7.889-125.333-23.667s-75.556-38.333-106.667-67.667l91.333-92c13.778-13.333 16.889-28.667 9.333-46-7.556-17.778-20.667-26.667-39.333-26.667h-298.667c-11.556 0-21.556 4.222-30 12.667s-12.667 18.444-12.667 30v298.667c0 18.667 8.889 31.778 26.667 39.333 17.333 7.556 32.667 4.444 46-9.333l86.667-86c47.556 44.889 101.889 79.667 163 104.333s124.333 37 189.667 37c69.333 0 135.556-13.556 198.667-40.667s117.556-63.556 163.333-109.333c45.778-45.778 82.222-100.222 109.333-163.333s40.667-129.333 40.667-198.667z" />
<glyph unicode="&#xe909;" glyph-name="vw-expand" d="M981.333 661.333c23.595 0 42.667 19.072 42.667 42.667v213.333c0 23.595-19.072 42.667-42.667 42.667h-213.333c-23.595 0-42.667-19.072-42.667-42.667s19.072-42.667 42.667-42.667h110.336l-366.336-366.336-366.336 366.336h110.336c23.595 0 42.667 19.072 42.667 42.667s-19.072 42.667-42.667 42.667h-213.333c-23.595 0-42.667-19.072-42.667-42.667v-213.333c0-23.595 19.072-42.667 42.667-42.667s42.667 19.072 42.667 42.667v110.336l366.336-366.336-366.336-366.336v110.336c0 23.595-19.072 42.667-42.667 42.667s-42.667-19.072-42.667-42.667v-213.333c0-23.595 19.072-42.667 42.667-42.667h213.333c23.595 0 42.667 19.072 42.667 42.667s-19.072 42.667-42.667 42.667h-110.336l366.336 366.336 366.336-366.336h-110.336c-23.595 0-42.667-19.072-42.667-42.667s19.072-42.667 42.667-42.667h213.333c23.595 0 42.667 19.072 42.667 42.667v213.333c0 23.595-19.072 42.667-42.667 42.667s-42.667-19.072-42.667-42.667v-110.336l-366.336 366.336 366.336 366.336v-110.336c0-23.595 19.072-42.667 42.667-42.667z" />
<glyph unicode="&#xe90a;" glyph-name="vw-search-plus" d="M630.154 546.462v-39.385c0-5.333-1.949-9.949-5.846-13.846s-8.513-5.846-13.846-5.846h-137.846v-137.846c0-5.333-1.949-9.949-5.846-13.846s-8.513-5.846-13.846-5.846h-39.385c-5.333 0-9.949 1.949-13.846 5.846s-5.846 8.513-5.846 13.846v137.846h-137.846c-5.333 0-9.949 1.949-13.846 5.846s-5.846 8.513-5.846 13.846v39.385c0 5.333 1.949 9.949 5.846 13.846s8.513 5.846 13.846 5.846h137.846v137.846c0 5.333 1.949 9.949 5.846 13.846s8.513 5.846 13.846 5.846h39.385c5.333 0 9.949-1.949 13.846-5.846s5.846-8.513 5.846-13.846v-137.846h137.846c5.333 0 9.949-1.949 13.846-5.846s5.846-8.513 5.846-13.846zM708.923 526.769c0 75.897-26.974 140.821-80.923 194.769s-118.872 80.923-194.769 80.923c-75.897 0-140.821-26.974-194.769-80.923s-80.923-118.872-80.923-194.769c0-75.897 26.974-140.821 80.923-194.769s118.872-80.923 194.769-80.923c75.897 0 140.821 26.974 194.769 80.923s80.923 118.872 80.923 194.769zM1024 14.769c0-21.744-7.692-40.308-23.077-55.692s-33.949-23.077-55.692-23.077c-22.154 0-40.615 7.795-55.385 23.385l-211.077 210.462c-73.436-50.872-155.282-76.308-245.538-76.308-58.667 0-114.769 11.385-168.308 34.154s-99.692 53.538-138.462 92.308c-38.769 38.769-69.538 84.923-92.308 138.462s-34.154 109.641-34.154 168.308c0 58.667 11.385 114.769 34.154 168.308s53.538 99.692 92.308 138.462c38.769 38.769 84.923 69.538 138.462 92.308s109.641 34.154 168.308 34.154c58.667 0 114.769-11.385 168.308-34.154s99.692-53.538 138.462-92.308c38.769-38.769 69.538-84.923 92.308-138.462s34.154-109.641 34.154-168.308c0-90.256-25.436-172.103-76.308-245.538l211.077-211.077c15.179-15.179 22.769-33.641 22.769-55.385z" />
<glyph unicode="&#xe90b;" glyph-name="vw-search-minus" d="M630.154 546.462v-39.385c0-5.333-1.949-9.949-5.846-13.846s-8.513-5.846-13.846-5.846h-354.462c-5.333 0-9.949 1.949-13.846 5.846s-5.846 8.513-5.846 13.846v39.385c0 5.333 1.949 9.949 5.846 13.846s8.513 5.846 13.846 5.846h354.462c5.333 0 9.949-1.949 13.846-5.846s5.846-8.513 5.846-13.846zM708.923 526.769c0 75.897-26.974 140.821-80.923 194.769s-118.872 80.923-194.769 80.923c-75.897 0-140.821-26.974-194.769-80.923s-80.923-118.872-80.923-194.769c0-75.897 26.974-140.821 80.923-194.769s118.872-80.923 194.769-80.923c75.897 0 140.821 26.974 194.769 80.923s80.923 118.872 80.923 194.769zM1024 14.769c0-21.744-7.692-40.308-23.077-55.692s-33.949-23.077-55.692-23.077c-22.154 0-40.615 7.795-55.385 23.385l-211.077 210.462c-73.436-50.872-155.282-76.308-245.538-76.308-58.667 0-114.769 11.385-168.308 34.154s-99.692 53.538-138.462 92.308c-38.769 38.769-69.538 84.923-92.308 138.462s-34.154 109.641-34.154 168.308c0 58.667 11.385 114.769 34.154 168.308s53.538 99.692 92.308 138.462c38.769 38.769 84.923 69.538 138.462 92.308s109.641 34.154 168.308 34.154c58.667 0 114.769-11.385 168.308-34.154s99.692-53.538 138.462-92.308c38.769-38.769 69.538-84.923 92.308-138.462s34.154-109.641 34.154-168.308c0-90.256-25.436-172.103-76.308-245.538l211.077-211.077c15.179-15.179 22.769-33.641 22.769-55.385z" />
<glyph unicode="&#xe90c;" glyph-name="vw-share" d="M832.512 320c-67.541 0-126.848-34.944-161.024-87.68l-298.88 149.461c15.829 42.411 16 89.515 0 132.437l298.88 149.419c34.176-52.736 93.483-87.637 161.024-87.637 105.984 0 192 85.973 192 192s-86.016 192-192 192c-132.693 0-226.432-132.053-180.096-258.176l-299.221-149.632c-35.2 54.528-94.848 87.808-160.683 87.808-105.856 0-192-86.144-192-192s86.144-192 192-192c65.835 0 125.483 33.237 160.725 87.808l299.221-149.632c-46.336-126.208 47.36-258.176 180.053-258.176 105.984 0 192 85.973 192 192s-86.016 192-192 192z" />
<glyph unicode="&#xe90d;" glyph-name="vw-file" horiz-adv-x="878" d="M585.143 667.429v269.714c8.381-5.333 15.238-10.667 20.571-16l233.143-233.143c5.333-5.333 10.667-12.19 16-20.571h-269.714zM512 649.143c0-15.238 5.333-28.19 16-38.857s23.619-16 38.857-16h310.857v-603.429c0-15.238-5.333-28.19-16-38.857s-23.619-16-38.857-16h-768c-15.238 0-28.19 5.333-38.857 16s-16 23.619-16 38.857v914.286c0 15.238 5.333 28.19 16 38.857s23.619 16 38.857 16h457.143v-310.857z" />
<glyph unicode="&#xe90e;" glyph-name="vw-th" horiz-adv-x="1303" d="M372.364 145.455v-139.636c0-19.394-6.788-35.879-20.364-49.455s-30.061-20.364-49.455-20.364h-232.727c-19.394 0-35.879 6.788-49.455 20.364s-20.364 30.061-20.364 49.455v139.636c0 19.394 6.788 35.879 20.364 49.455s30.061 20.364 49.455 20.364h232.727c19.394 0 35.879-6.788 49.455-20.364s20.364-30.061 20.364-49.455zM372.364 517.818v-139.636c0-19.394-6.788-35.879-20.364-49.455s-30.061-20.364-49.455-20.364h-232.727c-19.394 0-35.879 6.788-49.455 20.364s-20.364 30.061-20.364 49.455v139.636c0 19.394 6.788 35.879 20.364 49.455s30.061 20.364 49.455 20.364h232.727c19.394 0 35.879-6.788 49.455-20.364s20.364-30.061 20.364-49.455zM837.818 145.455v-139.636c0-19.394-6.788-35.879-20.364-49.455s-30.061-20.364-49.455-20.364h-232.727c-19.394 0-35.879 6.788-49.455 20.364s-20.364 30.061-20.364 49.455v139.636c0 19.394 6.788 35.879 20.364 49.455s30.061 20.364 49.455 20.364h232.727c19.394 0 35.879-6.788 49.455-20.364s20.364-30.061 20.364-49.455zM372.364 890.182v-139.636c0-19.394-6.788-35.879-20.364-49.455s-30.061-20.364-49.455-20.364h-232.727c-19.394 0-35.879 6.788-49.455 20.364s-20.364 30.061-20.364 49.455v139.636c0 19.394 6.788 35.879 20.364 49.455s30.061 20.364 49.455 20.364h232.727c19.394 0 35.879-6.788 49.455-20.364s20.364-30.061 20.364-49.455zM837.818 517.818v-139.636c0-19.394-6.788-35.879-20.364-49.455s-30.061-20.364-49.455-20.364h-232.727c-19.394 0-35.879 6.788-49.455 20.364s-20.364 30.061-20.364 49.455v139.636c0 19.394 6.788 35.879 20.364 49.455s30.061 20.364 49.455 20.364h232.727c19.394 0 35.879-6.788 49.455-20.364s20.364-30.061 20.364-49.455zM1303.273 145.455v-139.636c0-19.394-6.788-35.879-20.364-49.455s-30.061-20.364-49.455-20.364h-232.727c-19.394 0-35.879 6.788-49.455 20.364s-20.364 30.061-20.364 49.455v139.636c0 19.394 6.788 35.879 20.364 49.455s30.061 20.364 49.455 20.364h232.727c19.394 0 35.879-6.788 49.455-20.364s20.364-30.061 20.364-49.455zM837.818 890.182v-139.636c0-19.394-6.788-35.879-20.364-49.455s-30.061-20.364-49.455-20.364h-232.727c-19.394 0-35.879 6.788-49.455 20.364s-20.364 30.061-20.364 49.455v139.636c0 19.394 6.788 35.879 20.364 49.455s30.061 20.364 49.455 20.364h232.727c19.394 0 35.879-6.788 49.455-20.364s20.364-30.061 20.364-49.455zM1303.273 517.818v-139.636c0-19.394-6.788-35.879-20.364-49.455s-30.061-20.364-49.455-20.364h-232.727c-19.394 0-35.879 6.788-49.455 20.364s-20.364 30.061-20.364 49.455v139.636c0 19.394 6.788 35.879 20.364 49.455s30.061 20.364 49.455 20.364h232.727c19.394 0 35.879-6.788 49.455-20.364s20.364-30.061 20.364-49.455zM1303.273 890.182v-139.636c0-19.394-6.788-35.879-20.364-49.455s-30.061-20.364-49.455-20.364h-232.727c-19.394 0-35.879 6.788-49.455 20.364s-20.364 30.061-20.364 49.455v139.636c0 19.394 6.788 35.879 20.364 49.455s30.061 20.364 49.455 20.364h232.727c19.394 0 35.879-6.788 49.455-20.364s20.364-30.061 20.364-49.455z" />
<glyph unicode="&#xe90f;" glyph-name="vw-shopping-cart" d="M1002.667 874.667h-109.483c-21.163 0-39.296-15.744-42.24-36.608l-19.2-134.059h-767.744c-35.328 0-64-28.715-64-64s28.672-64 64-64h618.667c11.733 0 21.333-9.6 21.333-21.333 0-11.776-9.6-21.333-21.333-21.333h-576c-35.328 0-64-28.715-64-64s28.672-64 64-64h554.667c11.733 0 21.333-9.6 21.333-21.333 0-11.776-9.6-21.333-21.333-21.333h-512c-35.328 0-64-28.715-64-64s28.672-64 64-64h621.483c21.077 0 39.253 15.744 42.197 36.608 69.845 489.088 53.547 374.869 80.171 560.725h109.483c11.733 0 21.333 9.557 21.333 21.333s-9.6 21.333-21.333 21.333zM341.333 106.667c0-47.128-38.205-85.333-85.333-85.333s-85.333 38.205-85.333 85.333c0 47.128 38.205 85.333 85.333 85.333s85.333-38.205 85.333-85.333zM810.667 106.667c0-47.128-38.205-85.333-85.333-85.333s-85.333 38.205-85.333 85.333c0 47.128 38.205 85.333 85.333 85.333s85.333-38.205 85.333-85.333z" />
<glyph unicode="&#xe910;" glyph-name="vw-download" d="M981.333 246.699c-23.595 0-42.667-19.115-42.667-42.667v-81.621c0-44.544-37.589-101.077-79.787-101.077h-693.803c-42.197 0-79.744 56.533-79.744 101.077v81.621c0 23.552-19.115 42.667-42.667 42.667-23.595 0-42.667-19.115-42.667-42.667v-81.621c0-87.979 70.571-186.411 165.077-186.411h693.803c94.507 0 165.12 98.432 165.12 186.411v81.621c0 23.552-19.115 42.667-42.667 42.667zM481.792 178.56c15.573-15.915 43.008-17.408 60.373 0l298.667 298.624c16.683 16.683 16.683 43.648 0 60.331s-43.691 16.683-60.331 0l-225.835-225.835v605.653c0 23.552-19.115 42.667-42.667 42.667-23.595 0-42.667-19.115-42.667-42.667v-605.653l-225.835 225.835c-16.683 16.683-43.691 16.683-60.331 0-16.683-16.683-16.683-43.691 0-60.331l298.624-298.624z" />
<glyph unicode="&#xe911;" glyph-name="vw-file-view" d="M512 213.333c0 122.197 93.909 222.763 213.333 233.557v278.443c0 5.675-2.261 11.093-6.229 15.061l-213.333 213.333c-4.011 4.011-9.472 6.272-15.104 6.272h-469.333c-11.776 0-21.333-9.557-21.333-21.333v-896c0-11.776 9.557-21.333 21.333-21.333h590.848c-60.459 42.496-100.181 112.64-100.181 192zM469.333 917.333l213.333-213.333h-213.333v213.333zM149.333 704h192c11.776 0 21.333-9.557 21.333-21.333s-9.557-21.333-21.333-21.333h-192c-11.776 0-21.333 9.557-21.333 21.333s9.557 21.333 21.333 21.333zM362.667 277.333h-213.333c-11.776 0-21.333 9.557-21.333 21.333s9.557 21.333 21.333 21.333h213.333c11.776 0 21.333-9.557 21.333-21.333s-9.557-21.333-21.333-21.333zM405.333 405.333h-256c-11.776 0-21.333 9.557-21.333 21.333s9.557 21.333 21.333 21.333h256c11.776 0 21.333-9.557 21.333-21.333s-9.557-21.333-21.333-21.333zM490.667 533.333h-341.333c-11.776 0-21.333 9.557-21.333 21.333s9.557 21.333 21.333 21.333h341.333c11.776 0 21.333-9.557 21.333-21.333s-9.557-21.333-21.333-21.333zM1017.771-27.563l-121.771 121.728c26.283 32.853 42.667 73.941 42.667 119.168 0 105.856-86.101 192-191.957 192-105.899 0-192.043-86.144-192.043-192 0-105.813 86.144-192 192.043-192 45.184 0 86.272 16.427 119.125 42.667l121.771-121.771c8.32-8.277 21.845-8.277 30.165 0 8.32 8.32 8.32 21.845 0 30.208zM746.709 64c-82.389 0-149.376 66.987-149.376 149.333 0 82.304 66.987 149.333 149.376 149.333 82.304 0 149.291-67.029 149.291-149.333 0-82.347-66.987-149.333-149.291-149.333z" />
<glyph unicode="&#xe912;" glyph-name="vw-text" d="M853.333 960h-682.667c-23.595 0-42.667-19.115-42.667-42.667v-128c0-23.595 19.072-42.667 42.667-42.667 23.552 0 42.667 19.072 42.667 42.667v85.333h256v-853.333h-106.667c-23.595 0-42.667-19.115-42.667-42.667 0-23.595 19.072-42.667 42.667-42.667h298.667c23.552 0 42.667 19.072 42.667 42.667 0 23.552-19.115 42.667-42.667 42.667h-106.667v853.333h256v-85.333c0-23.595 19.072-42.667 42.667-42.667 23.552 0 42.667 19.072 42.667 42.667v128c0 23.552-19.115 42.667-42.667 42.667z" />
<glyph unicode="&#xe913;" glyph-name="vw-info-circle" d="M682.667 128v106.667c0 6.222-2 11.333-6 15.333s-9.111 6-15.333 6h-64v341.333c0 6.222-2 11.333-6 15.333s-9.111 6-15.333 6h-213.333c-6.222 0-11.333-2-15.333-6s-6-9.111-6-15.333v-106.667c0-6.222 2-11.333 6-15.333s9.111-6 15.333-6h64v-213.333h-64c-6.222 0-11.333-2-15.333-6s-6-9.111-6-15.333v-106.667c0-6.222 2-11.333 6-15.333s9.111-6 15.333-6h298.667c6.222 0 11.333 2 15.333 6s6 9.111 6 15.333zM597.333 725.333v106.667c0 6.222-2 11.333-6 15.333s-9.111 6-15.333 6h-128c-6.222 0-11.333-2-15.333-6s-6-9.111-6-15.333v-106.667c0-6.222 2-11.333 6-15.333s9.111-6 15.333-6h128c6.222 0 11.333 2 15.333 6s6 9.111 6 15.333zM1024 448c0-92.889-22.889-178.556-68.667-257s-107.889-140.556-186.333-186.333c-78.444-45.778-164.111-68.667-257-68.667s-178.556 22.889-257 68.667c-78.444 45.778-140.556 107.889-186.333 186.333s-68.667 164.111-68.667 257c0 92.889 22.889 178.556 68.667 257s107.889 140.556 186.333 186.333c78.444 45.778 164.111 68.667 257 68.667s178.556-22.889 257-68.667c78.444-45.778 140.556-107.889 186.333-186.333s68.667-164.111 68.667-257z" />
<glyph unicode="&#xe914;" glyph-name="vw-list" horiz-adv-x="1303" d="M186.182 98.909v-139.636c0-6.303-2.303-11.758-6.909-16.364s-10.061-6.909-16.364-6.909h-139.636c-6.303 0-11.758 2.303-16.364 6.909s-6.909 10.061-6.909 16.364v139.636c0 6.303 2.303 11.758 6.909 16.364s10.061 6.909 16.364 6.909h139.636c6.303 0 11.758-2.303 16.364-6.909s6.909-10.061 6.909-16.364zM186.182 378.182v-139.636c0-6.303-2.303-11.758-6.909-16.364s-10.061-6.909-16.364-6.909h-139.636c-6.303 0-11.758 2.303-16.364 6.909s-6.909 10.061-6.909 16.364v139.636c0 6.303 2.303 11.758 6.909 16.364s10.061 6.909 16.364 6.909h139.636c6.303 0 11.758-2.303 16.364-6.909s6.909-10.061 6.909-16.364zM186.182 657.455v-139.636c0-6.303-2.303-11.758-6.909-16.364s-10.061-6.909-16.364-6.909h-139.636c-6.303 0-11.758 2.303-16.364 6.909s-6.909 10.061-6.909 16.364v139.636c0 6.303 2.303 11.758 6.909 16.364s10.061 6.909 16.364 6.909h139.636c6.303 0 11.758-2.303 16.364-6.909s6.909-10.061 6.909-16.364zM1303.273 98.909v-139.636c0-6.303-2.303-11.758-6.909-16.364s-10.061-6.909-16.364-6.909h-977.455c-6.303 0-11.758 2.303-16.364 6.909s-6.909 10.061-6.909 16.364v139.636c0 6.303 2.303 11.758 6.909 16.364s10.061 6.909 16.364 6.909h977.455c6.303 0 11.758-2.303 16.364-6.909s6.909-10.061 6.909-16.364zM186.182 936.727v-139.636c0-6.303-2.303-11.758-6.909-16.364s-10.061-6.909-16.364-6.909h-139.636c-6.303 0-11.758 2.303-16.364 6.909s-6.909 10.061-6.909 16.364v139.636c0 6.303 2.303 11.758 6.909 16.364s10.061 6.909 16.364 6.909h139.636c6.303 0 11.758-2.303 16.364-6.909s6.909-10.061 6.909-16.364zM1303.273 378.182v-139.636c0-6.303-2.303-11.758-6.909-16.364s-10.061-6.909-16.364-6.909h-977.455c-6.303 0-11.758 2.303-16.364 6.909s-6.909 10.061-6.909 16.364v139.636c0 6.303 2.303 11.758 6.909 16.364s10.061 6.909 16.364 6.909h977.455c6.303 0 11.758-2.303 16.364-6.909s6.909-10.061 6.909-16.364zM1303.273 657.455v-139.636c0-6.303-2.303-11.758-6.909-16.364s-10.061-6.909-16.364-6.909h-977.455c-6.303 0-11.758 2.303-16.364 6.909s-6.909 10.061-6.909 16.364v139.636c0 6.303 2.303 11.758 6.909 16.364s10.061 6.909 16.364 6.909h977.455c6.303 0 11.758-2.303 16.364-6.909s6.909-10.061 6.909-16.364zM1303.273 936.727v-139.636c0-6.303-2.303-11.758-6.909-16.364s-10.061-6.909-16.364-6.909h-977.455c-6.303 0-11.758 2.303-16.364 6.909s-6.909 10.061-6.909 16.364v139.636c0 6.303 2.303 11.758 6.909 16.364s10.061 6.909 16.364 6.909h977.455c6.303 0 11.758-2.303 16.364-6.909s6.909-10.061 6.909-16.364z" />
<glyph unicode="&#xe915;" glyph-name="vw-angle-left" horiz-adv-x="597" d="M597.162 874.838c0-8.892-3.42-16.759-10.261-23.599l-403.238-403.238 403.238-403.238c6.84-6.84 10.261-14.707 10.261-23.599s-3.42-16.759-10.261-23.599l-51.303-51.303c-6.84-6.84-14.707-10.261-23.599-10.261s-16.759 3.42-23.599 10.261l-478.14 478.14c-6.84 6.84-10.261 14.707-10.261 23.599s3.42 16.759 10.261 23.599l478.14 478.14c6.84 6.84 14.707 10.261 23.599 10.261s16.759-3.42 23.599-10.261l51.303-51.303c6.84-6.84 10.261-14.707 10.261-23.599z" />
<glyph unicode="&#xe916;" glyph-name="vw-angle-right" horiz-adv-x="597" d="M597.162 448c0-8.892-3.42-16.759-10.261-23.599l-478.14-478.14c-6.84-6.84-14.707-10.261-23.599-10.261s-16.759 3.42-23.599 10.261l-51.303 51.303c-6.84 6.84-10.261 14.707-10.261 23.599s3.42 16.759 10.261 23.599l403.238 403.238-403.238 403.238c-6.84 6.84-10.261 14.707-10.261 23.599s3.42 16.759 10.261 23.599l51.303 51.303c6.84 6.84 14.707 10.261 23.599 10.261s16.759-3.42 23.599-10.261l478.14-478.14c6.84-6.84 10.261-14.707 10.261-23.599z" />
<glyph unicode="&#xe917;" glyph-name="vw-angle-double-left" horiz-adv-x="991" d="M597.162 21.162c0-8.892-3.42-16.759-10.261-23.599l-51.303-51.303c-6.84-6.84-14.707-10.261-23.599-10.261s-16.759 3.42-23.599 10.261l-478.14 478.14c-6.84 6.84-10.261 14.707-10.261 23.599s3.42 16.759 10.261 23.599l478.14 478.14c6.84 6.84 14.707 10.261 23.599 10.261s16.759-3.42 23.599-10.261l51.303-51.303c6.84-6.84 10.261-14.707 10.261-23.599s-3.42-16.759-10.261-23.599l-403.238-403.238 403.238-403.238c6.84-6.84 10.261-14.707 10.261-23.599zM991.166 21.162c0-8.892-3.42-16.759-10.261-23.599l-51.303-51.303c-6.84-6.84-14.707-10.261-23.599-10.261s-16.759 3.42-23.599 10.261l-478.14 478.14c-6.84 6.84-10.261 14.707-10.261 23.599s3.42 16.759 10.261 23.599l478.14 478.14c6.84 6.84 14.707 10.261 23.599 10.261s16.759-3.42 23.599-10.261l51.303-51.303c6.84-6.84 10.261-14.707 10.261-23.599s-3.42-16.759-10.261-23.599l-403.238-403.238 403.238-403.238c6.84-6.84 10.261-14.707 10.261-23.599z" />
<glyph unicode="&#xe918;" glyph-name="vw-angle-double-right" horiz-adv-x="991" d="M597.162 448c0-8.892-3.42-16.759-10.261-23.599l-478.14-478.14c-6.84-6.84-14.707-10.261-23.599-10.261s-16.759 3.42-23.599 10.261l-51.303 51.303c-6.84 6.84-10.261 14.707-10.261 23.599s3.42 16.759 10.261 23.599l403.238 403.238-403.238 403.238c-6.84 6.84-10.261 14.707-10.261 23.599s3.42 16.759 10.261 23.599l51.303 51.303c6.84 6.84 14.707 10.261 23.599 10.261s16.759-3.42 23.599-10.261l478.14-478.14c6.84-6.84 10.261-14.707 10.261-23.599zM991.166 448c0-8.892-3.42-16.759-10.261-23.599l-478.14-478.14c-6.84-6.84-14.707-10.261-23.599-10.261s-16.759 3.42-23.599 10.261l-51.303 51.303c-6.84 6.84-10.261 14.707-10.261 23.599s3.42 16.759 10.261 23.599l403.238 403.238-403.238 403.238c-6.84 6.84-10.261 14.707-10.261 23.599s3.42 16.759 10.261 23.599l51.303 51.303c6.84 6.84 14.707 10.261 23.599 10.261s16.759-3.42 23.599-10.261l478.14-478.14c6.84-6.84 10.261-14.707 10.261-23.599z" />
</font>
</defs>
</svg>
