<?xml version="1.0" encoding="UTF-8" standalone="no"?>
<svg width="31px" height="21px" viewBox="0 0 31 21" version="1.1" xmlns="http://www.w3.org/2000/svg" xmlns:xlink="http://www.w3.org/1999/xlink" xmlns:sketch="http://www.bohemiancoding.com/sketch/ns">
    <!-- Generator: Sketch 3.5.2 (25235) - http://www.bohemiancoding.com/sketch -->
    <title>hamburger-nav</title>
    <desc>Created with Sketch.</desc>
    <defs></defs>
    <g id="Page-1" stroke="none" stroke-width="1" fill="none" fill-rule="evenodd" sketch:type="MSPage">
        <path d="M0,10.5 C0,9.34020203 0.944694972,8.4 2.10638409,8.4 L28.8936159,8.4 C30.0569397,8.4 31,9.33211613 31,10.5 L31,10.5 C31,11.659798 30.055305,12.6 28.8936159,12.6 L2.10638409,12.6 C0.94306028,12.6 0,11.6678839 0,10.5 L0,10.5 Z M0,18.9 C0,17.740202 0.944694972,16.8 2.10638409,16.8 L28.8936159,16.8 C30.0569397,16.8 31,17.7321161 31,18.9 C31,20.059798 30.055305,21 28.8936159,21 L2.10638409,21 C0.94306028,21 0,20.0678839 0,18.9 Z M0,2.1 C0,0.940202025 0.944694972,0 2.10638409,0 L28.8936159,0 C30.0569397,0 31,0.932116127 31,2.1 C31,3.25979797 30.055305,4.2 28.8936159,4.2 L2.10638409,4.2 C0.94306028,4.2 0,3.26788387 0,2.1 Z" id="hamburger-nav" fill="#FFFFFF" sketch:type="MSShapeGroup"></path>
    </g>
</svg>