<?xml version="1.0" encoding="UTF-8" standalone="no"?>
<svg width="40px" height="34px" viewBox="0 0 40 34" version="1.1" xmlns="http://www.w3.org/2000/svg" xmlns:xlink="http://www.w3.org/1999/xlink" xmlns:sketch="http://www.bohemiancoding.com/sketch/ns">
    <!-- Generator: Sketch 3.4.4 (17249) - http://www.bohemiancoding.com/sketch -->
    <title>“</title>
    <desc>Created with Sketch.</desc>
    <defs></defs>
    <g id="Page-1" stroke="none" stroke-width="1" fill="none" fill-rule="evenodd" sketch:type="MSPage">
        <path d="M9.08727273,15.9027273 C11.4927393,15.9027273 13.4527197,16.7045374 14.9672727,18.3081818 C16.4818258,19.9118262 17.2390909,21.9386241 17.2390909,24.3886364 C17.2390909,26.8386486 16.4150082,28.9768091 14.7668182,30.8031818 C13.1186281,32.6295546 11.0027402,33.5427273 8.41909091,33.5427273 C5.83544163,33.5427273 3.78637121,32.4513745 2.27181818,30.2686364 C0.757265155,28.0858982 0,25.4354701 0,22.3172727 C0,17.3281569 1.55907532,12.6509309 4.67727273,8.28545455 C7.79547014,3.91997817 12.027246,1.15818761 17.3727273,0 L18.3081818,3.20727273 C12.1608784,5.88001336 9.08727273,10.1117892 9.08727273,15.9027273 L9.08727273,15.9027273 Z M30.4690909,15.9027273 C32.8745575,15.9027273 34.8345379,16.7045374 36.3490909,18.3081818 C37.8636439,19.9118262 38.6209091,21.9386241 38.6209091,24.3886364 C38.6209091,26.8386486 37.7968264,28.9768091 36.1486364,30.8031818 C34.5004463,32.6295546 32.3845584,33.5427273 29.8009091,33.5427273 C27.2172598,33.5427273 25.1681894,32.4513745 23.6536364,30.2686364 C22.1390833,28.0858982 21.3818182,25.4354701 21.3818182,22.3172727 C21.3818182,17.3281569 22.9408935,12.6509309 26.0590909,8.28545455 C29.1772883,3.91997817 33.4090642,1.15818761 38.7545455,0 L39.69,3.20727273 C33.5426965,5.88001336 30.4690909,10.1117892 30.4690909,15.9027273 L30.4690909,15.9027273 Z" id="“" fill="#ffffff" sketch:type="MSShapeGroup"></path>
    </g>
</svg>